<svg xmlns="http://www.w3.org/2000/svg" xmlns:xlink="http://www.w3.org/1999/xlink" version="1.1" id="Layer_1" x="0px" y="0px" width="100px" height="100px" viewBox="0 0 100 100" enable-background="new 0 0 100 100" xml:space="preserve">
<path fill="#ddd" d="M50.25,2.528c-26.372,0-47.75,21.378-47.75,47.75c0,26.372,21.378,47.75,47.75,47.75c26.372,0,47.75-21.378,47.75-47.75  C98,23.906,76.622,2.528,50.25,2.528z M43.904,33.377h-7.025v-7.025h7.025V33.377z M50.938,40.402h-7.026v-7.025h7.026V40.402z   M58,47.34h-7.025v-7.025H58V47.34z M65.063,54.277h-7.025v-7.025h7.025V54.277z M58.063,61.343h-7.025v-7.025h7.025V61.343z   M51,68.368h-7.026v-7.025H51V68.368z M43.982,75.367h-7.025v-7.025h7.025V75.367z"/>
</svg>