<svg xmlns="http://www.w3.org/2000/svg" xmlns:xlink="http://www.w3.org/1999/xlink" version="1.1" id="Layer_1" x="0px" y="0px" width="100px" height="100px" viewBox="0 0 100 100" enable-background="new 0 0 100 100" xml:space="preserve">
<path fill="#ddd" d="M50.25,2.528c-26.372,0-47.75,21.378-47.75,47.75c0,26.372,21.378,47.75,47.75,47.75c26.372,0,47.75-21.378,47.75-47.75  C98,23.906,76.622,2.528,50.25,2.528z M54.037,26.352h7.025v7.025h-7.025V26.352z M47.004,33.377h7.025v7.025h-7.025V33.377z   M39.941,40.314h7.025v7.025h-7.025V40.314z M32.879,47.252h7.025v7.025h-7.025V47.252z M39.879,54.317h7.025v7.025h-7.025V54.317z   M46.941,61.343h7.025v7.025h-7.025V61.343z M53.959,68.342h7.025v7.025h-7.025V68.342z"/>
</svg>